name processed_emg_signals						
nRows=64						
nColumns=7						
 						
endheader						
time	LGLTMED	LRF	LADDLONG	LST	LTA	LGM
0.58	0.063629114	0.105363666	0.044764405	0.049673438	0.062668147	0.053683397
0.581	0.063060323	0.103452087	0.044230397	0.050748124	0.062557729	0.054067381
0.582	0.062487031	0.101548944	0.043702389	0.051846587	0.062443	0.054507544
0.583	0.061909501	0.099655188	0.04318071	0.05296855	0.062323764	0.055004992
0.584	0.061327999	0.097771757	0.04266569	0.054113715	0.062199816	0.055560805
0.585	0.060742783	0.095899576	0.042157652	0.055281768	0.062070947	0.056176038
0.586	0.060154113	0.094039556	0.041656917	0.056472373	0.061936937	0.056851722
0.587	0.059562245	0.092192593	0.041163797	0.057685179	0.061797562	0.057588854
0.588	0.058967432	0.090359566	0.040678605	0.058919816	0.061652589	0.058388401
0.589	0.058369928	0.088541337	0.040201643	0.060175897	0.06150178	0.059251299
0.59	0.05776998	0.086738751	0.039733212	0.06145302	0.06134489	0.060178444
0.591	0.057167836	0.084952632	0.039273604	0.062750764	0.061181669	0.061170697
0.592	0.056563742	0.083183786	0.038823106	0.064068695	0.061011859	0.062228879
0.593	0.055957938	0.081432998	0.038381998	0.065406364	0.060835198	0.063353766
0.594	0.055350666	0.07970103	0.037950553	0.066763306	0.060651421	0.064546093
0.595	0.054742163	0.077988623	0.037529038	0.068139046	0.060460257	0.065806547
0.596	0.054132666	0.076296496	0.037117711	0.069533094	0.060261429	0.067135768
0.597	0.053522407	0.074625341	0.036716823	0.070944948	0.060054661	0.068534345
0.598	0.052911619	0.072975828	0.036326616	0.072374095	0.05983967	0.070002813
0.599	0.052300531	0.0713486	0.035947327	0.073820013	0.059616174	0.071541656
0.6	0.05168937	0.069744276	0.03557918	0.075282169	0.059383888	0.073151299
0.601	0.051078362	0.068163446	0.035222393	0.076760023	0.059142525	0.07483211
0.602	0.050467732	0.066606676	0.034877174	0.078253026	0.058891801	0.076584399
0.603	0.0498577	0.0650745	0.034543722	0.079760621	0.058631429	0.078408411
0.604	0.049248487	0.063567429	0.034222227	0.081282249	0.058361126	0.080304332
0.605	0.048640312	0.06208594	0.033912869	0.082817342	0.058080611	0.082272279
0.606	0.04803339	0.060630486	0.033615818	0.08436533	0.057789605	0.084312306
0.607	0.047427937	0.059201487	0.033331234	0.085925639	0.057487834	0.086424399
0.608	0.046824166	0.057799334	0.033059268	0.087497695	0.05717503	0.088608474
0.609	0.046222288	0.05642439	0.032800059	0.089080921	0.056850927	0.090864376
0.61	0.045622513	0.055076985	0.032553737	0.090674739	0.056515272	0.093191882
0.611	0.04502505	0.053757421	0.03232042	0.092278575	0.056167816	0.095590693
0.612	0.044430104	0.052465967	0.032100218	0.093891853	0.055808321	0.09806044
0.613	0.04383788	0.051202865	0.031893228	0.095514003	0.055436558	0.100600676
0.614	0.043248581	0.049968323	0.031699537	0.097144456	0.055052312	0.103210883
0.615	0.042662407	0.048762519	0.03151922	0.098782651	0.054655379	0.105890465
0.616	0.042079558	0.047585602	0.031352344	0.100428029	0.054245569	0.108638751
0.617	0.04150023	0.046437689	0.031198962	0.10208004	0.053822708	0.111454993
0.618	0.040924617	0.045318868	0.031059117	0.103738141	0.053386639	0.114338366
0.619	0.040352913	0.044229194	0.030932843	0.105401794	0.052937222	0.11728797
0.62	0.039785306	0.043168696	0.03082016	0.107070476	0.052474336	0.120302826
0.621	0.039221986	0.042137371	0.030721079	0.108743668	0.051997882	0.123381877
0.622	0.038663136	0.041135187	0.030635599	0.110420864	0.051507782	0.126523994
0.623	0.038108938	0.040162082	0.030563709	0.11210157	0.05100398	0.129727966
0.624	0.037559573	0.039217968	0.030505386	0.113785302	0.050486448	0.132992509
0.625	0.037015215	0.038302726	0.030460597	0.11547159	0.04995518	0.136316264
0.626	0.036476038	0.037416211	0.030429298	0.117159976	0.0494102	0.139697796
0.627	0.035942211	0.03655825	0.030411435	0.118850015	0.048851562	0.143135595
0.628	0.035413901	0.035728644	0.030406942	0.120541278	0.048279346	0.146628079
0.629	0.034891268	0.034927167	0.030415742	0.122233348	0.047693668	0.150173596
0.63	0.034374472	0.034153567	0.030437751	0.123925823	0.047094674	0.153770418
0.631	0.033863667	0.03340757	0.03047287	0.125618318	0.046482546	0.157416752
0.632	0.033359001	0.032688874	0.030520994	0.127310462	0.045857501	0.161110734
0.633	0.032860622	0.031997157	0.030582004	0.129001897	0.045219794	0.164850433
0.634	0.032368669	0.03133207	0.030655775	0.130692285	0.044569716	0.168633853
0.635	0.03188328	0.030693246	0.030742169	0.132381299	0.043907601	0.172458934
0.636	0.031404584	0.030080295	0.030841041	0.134068629	0.043233821	0.176323554
0.637	0.030932709	0.029492806	0.030952234	0.135753982	0.042548792	0.18022553
0.638	0.030467775	0.028930349	0.031075583	0.137437078	0.041852972	0.18416262
0.639	0.030009898	0.028392475	0.031210915	0.139117652	0.041146863	0.188132526
0.64	0.029559189	0.027878716	0.031358046	0.140795454	0.040431015	0.192132897
0.641	0.029115751	0.02738859	0.031516785	0.142470247	0.039706022	0.196161325
0.642	0.028679685	0.026921596	0.031686932	0.14414181	0.038972527	0.200215356
0.643	0.028251083	0.026477218	0.031868279	0.145809931	0.038231221	0.204292486
